<mxfile host="app.diagrams.net" agent="Mozilla/5.0 (X11; Linux x86_64; rv:139.0) Gecko/20100101 Firefox/139.0" version="27.1.5">
  <diagram name="Page-1" id="JATN888soexPwl4E_dTx">
    <mxGraphModel dx="1645" dy="1052" grid="1" gridSize="10" guides="1" tooltips="1" connect="1" arrows="1" fold="1" page="1" pageScale="1" pageWidth="850" pageHeight="1100" math="0" shadow="0">
      <root>
        <mxCell id="0" />
        <mxCell id="1" parent="0" />
        <mxCell id="F7jY7AjMyritVCq3-mGS-1" value="&amp;nbsp;" style="rounded=0;whiteSpace=wrap;html=1;" parent="1" vertex="1">
          <mxGeometry x="210" y="400" width="640" height="360" as="geometry" />
        </mxCell>
        <mxCell id="F7jY7AjMyritVCq3-mGS-2" value="" style="rounded=0;whiteSpace=wrap;html=1;" parent="1" vertex="1">
          <mxGeometry x="230" y="420" width="200" height="320" as="geometry" />
        </mxCell>
        <mxCell id="F7jY7AjMyritVCq3-mGS-6" value="GREEN" style="rounded=0;whiteSpace=wrap;html=1;aspect=fixed;" parent="1" vertex="1">
          <mxGeometry x="495" y="420" width="300" height="250" as="geometry" />
        </mxCell>
        <mxCell id="F7jY7AjMyritVCq3-mGS-7" value="DISCARDED" style="rounded=0;whiteSpace=wrap;html=1;" parent="1" vertex="1">
          <mxGeometry x="242.5" y="660" width="175" height="60" as="geometry" />
        </mxCell>
        <mxCell id="F7jY7AjMyritVCq3-mGS-8" value="R" style="whiteSpace=wrap;html=1;aspect=fixed;" parent="1" vertex="1">
          <mxGeometry x="242.5" y="430" width="60" height="60" as="geometry" />
        </mxCell>
        <mxCell id="F7jY7AjMyritVCq3-mGS-9" value="R" style="whiteSpace=wrap;html=1;aspect=fixed;" parent="1" vertex="1">
          <mxGeometry x="242.5" y="500" width="60" height="60" as="geometry" />
        </mxCell>
        <mxCell id="F7jY7AjMyritVCq3-mGS-10" value="&lt;div&gt;TAKE ONE&lt;/div&gt;&lt;div&gt;&lt;br&gt;&lt;/div&gt;&lt;div&gt;[ 123 LEFT ]&lt;/div&gt;" style="whiteSpace=wrap;html=1;aspect=fixed;" parent="1" vertex="1">
          <mxGeometry x="310" y="440" width="110" height="110" as="geometry" />
        </mxCell>
        <mxCell id="F7jY7AjMyritVCq3-mGS-20" value="RED" style="rounded=0;whiteSpace=wrap;html=1;" parent="1" vertex="1">
          <mxGeometry x="470" y="680" width="110" height="60" as="geometry" />
        </mxCell>
        <mxCell id="F7jY7AjMyritVCq3-mGS-22" value="BLUE" style="rounded=0;whiteSpace=wrap;html=1;" parent="1" vertex="1">
          <mxGeometry x="590" y="680" width="110" height="60" as="geometry" />
        </mxCell>
        <mxCell id="F7jY7AjMyritVCq3-mGS-23" value="YELL" style="rounded=0;whiteSpace=wrap;html=1;" parent="1" vertex="1">
          <mxGeometry x="710" y="680" width="110" height="60" as="geometry" />
        </mxCell>
        <mxCell id="F7jY7AjMyritVCq3-mGS-26" value="&lt;div&gt;SHOW&lt;/div&gt;&lt;div&gt;CARDS&lt;/div&gt;" style="rounded=0;whiteSpace=wrap;html=1;" parent="1" vertex="1">
          <mxGeometry x="242.5" y="580" width="57.5" height="60" as="geometry" />
        </mxCell>
        <mxCell id="F7jY7AjMyritVCq3-mGS-28" value="&lt;div&gt;59:03:11&lt;/div&gt;&lt;div&gt;[2/3]&lt;/div&gt;" style="rounded=0;whiteSpace=wrap;html=1;" parent="1" vertex="1">
          <mxGeometry x="310" y="580" width="110" height="60" as="geometry" />
        </mxCell>
      </root>
    </mxGraphModel>
  </diagram>
</mxfile>
